<mxfile host="app.diagrams.net" modified="2022-08-12T01:21:47.161Z" agent="5.0 (Windows NT 10.0; Win64; x64) AppleWebKit/537.36 (KHTML, like Gecko) Chrome/102.0.5005.61 Safari/537.36" etag="zIE-nO0tx0-Zz5Gb1yZY" version="20.0.4" type="github">
  <diagram id="Wq_ZDjd97Cr_KuuV2a8x" name="Page-1">
    <mxGraphModel dx="1261" dy="719" grid="0" gridSize="10" guides="1" tooltips="1" connect="1" arrows="1" fold="1" page="1" pageScale="1" pageWidth="827" pageHeight="1169" background="#ffffff" math="0" shadow="0">
      <root>
        <mxCell id="0" />
        <mxCell id="1" parent="0" />
        <mxCell id="wEs3hCSaN0IzluOZxynQ-3" value="HTTP请求" style="edgeStyle=orthogonalEdgeStyle;rounded=0;orthogonalLoop=1;jettySize=auto;html=1;exitX=1;exitY=0.5;exitDx=0;exitDy=0;" edge="1" parent="1" source="wEs3hCSaN0IzluOZxynQ-1" target="wEs3hCSaN0IzluOZxynQ-2">
          <mxGeometry relative="1" as="geometry" />
        </mxCell>
        <mxCell id="wEs3hCSaN0IzluOZxynQ-1" value="HTTP 客户端" style="rounded=1;whiteSpace=wrap;html=1;fillColor=#dae8fc;strokeColor=#6c8ebf;" vertex="1" parent="1">
          <mxGeometry x="63" y="431" width="80" height="40" as="geometry" />
        </mxCell>
        <mxCell id="wEs3hCSaN0IzluOZxynQ-6" style="edgeStyle=orthogonalEdgeStyle;rounded=0;orthogonalLoop=1;jettySize=auto;html=1;exitX=1;exitY=0.5;exitDx=0;exitDy=0;entryX=0;entryY=0.5;entryDx=0;entryDy=0;" edge="1" parent="1" source="wEs3hCSaN0IzluOZxynQ-2" target="wEs3hCSaN0IzluOZxynQ-4">
          <mxGeometry relative="1" as="geometry" />
        </mxCell>
        <mxCell id="wEs3hCSaN0IzluOZxynQ-9" value="hustairline.xyz" style="edgeLabel;html=1;align=center;verticalAlign=middle;resizable=0;points=[];" vertex="1" connectable="0" parent="wEs3hCSaN0IzluOZxynQ-6">
          <mxGeometry x="0.5624" y="1" relative="1" as="geometry">
            <mxPoint x="9" y="1" as="offset" />
          </mxGeometry>
        </mxCell>
        <mxCell id="wEs3hCSaN0IzluOZxynQ-7" style="edgeStyle=orthogonalEdgeStyle;rounded=0;orthogonalLoop=1;jettySize=auto;html=1;exitX=1;exitY=0.5;exitDx=0;exitDy=0;entryX=0;entryY=0.5;entryDx=0;entryDy=0;" edge="1" parent="1" source="wEs3hCSaN0IzluOZxynQ-2" target="wEs3hCSaN0IzluOZxynQ-5">
          <mxGeometry relative="1" as="geometry" />
        </mxCell>
        <mxCell id="wEs3hCSaN0IzluOZxynQ-8" value="Server name" style="edgeLabel;html=1;align=center;verticalAlign=middle;resizable=0;points=[];" vertex="1" connectable="0" parent="wEs3hCSaN0IzluOZxynQ-7">
          <mxGeometry x="-0.7408" y="-2" relative="1" as="geometry">
            <mxPoint x="16" y="-2" as="offset" />
          </mxGeometry>
        </mxCell>
        <mxCell id="wEs3hCSaN0IzluOZxynQ-10" value="api.hustairline.xyz" style="edgeLabel;html=1;align=center;verticalAlign=middle;resizable=0;points=[];" vertex="1" connectable="0" parent="wEs3hCSaN0IzluOZxynQ-7">
          <mxGeometry x="0.5191" y="3" relative="1" as="geometry">
            <mxPoint x="13" as="offset" />
          </mxGeometry>
        </mxCell>
        <mxCell id="wEs3hCSaN0IzluOZxynQ-2" value="nginx" style="rounded=1;whiteSpace=wrap;html=1;" vertex="1" parent="1">
          <mxGeometry x="233" y="431" width="80" height="40" as="geometry" />
        </mxCell>
        <mxCell id="wEs3hCSaN0IzluOZxynQ-4" value="前端静态资源" style="rounded=1;whiteSpace=wrap;html=1;" vertex="1" parent="1">
          <mxGeometry x="523" y="366" width="110" height="40" as="geometry" />
        </mxCell>
        <mxCell id="wEs3hCSaN0IzluOZxynQ-13" style="edgeStyle=orthogonalEdgeStyle;rounded=0;orthogonalLoop=1;jettySize=auto;html=1;exitX=1;exitY=0.5;exitDx=0;exitDy=0;" edge="1" parent="1" source="wEs3hCSaN0IzluOZxynQ-5" target="wEs3hCSaN0IzluOZxynQ-12">
          <mxGeometry relative="1" as="geometry" />
        </mxCell>
        <mxCell id="wEs3hCSaN0IzluOZxynQ-5" value="后端HTTP服务器" style="rounded=1;whiteSpace=wrap;html=1;" vertex="1" parent="1">
          <mxGeometry x="523" y="496" width="110" height="40" as="geometry" />
        </mxCell>
        <mxCell id="wEs3hCSaN0IzluOZxynQ-11" value="转发" style="text;html=1;strokeColor=none;fillColor=none;align=center;verticalAlign=middle;whiteSpace=wrap;rounded=0;" vertex="1" parent="1">
          <mxGeometry x="413" y="436" width="60" height="30" as="geometry" />
        </mxCell>
        <mxCell id="wEs3hCSaN0IzluOZxynQ-12" value="线程池响应" style="rounded=1;whiteSpace=wrap;html=1;" vertex="1" parent="1">
          <mxGeometry x="683" y="493.5" width="100" height="45" as="geometry" />
        </mxCell>
        <mxCell id="wEs3hCSaN0IzluOZxynQ-14" value="" style="rounded=1;whiteSpace=wrap;html=1;fillColor=none;dashed=1;glass=0;shadow=0;sketch=0;" vertex="1" parent="1">
          <mxGeometry x="203" y="341" width="600" height="220" as="geometry" />
        </mxCell>
        <mxCell id="wEs3hCSaN0IzluOZxynQ-15" value="HTTP服务端" style="text;html=1;strokeColor=#82b366;fillColor=#d5e8d4;align=center;verticalAlign=middle;whiteSpace=wrap;rounded=0;dashed=1;" vertex="1" parent="1">
          <mxGeometry x="443" y="321" width="80" height="30" as="geometry" />
        </mxCell>
        <mxCell id="wEs3hCSaN0IzluOZxynQ-16" value="" style="rounded=1;whiteSpace=wrap;html=1;shadow=0;glass=0;dashed=1;sketch=0;fillColor=none;" vertex="1" parent="1">
          <mxGeometry x="510" y="482.5" width="136" height="67" as="geometry" />
        </mxCell>
        <mxCell id="wEs3hCSaN0IzluOZxynQ-17" value="自研HTTP服务器" style="text;html=1;strokeColor=#b85450;fillColor=#f8cecc;align=center;verticalAlign=middle;whiteSpace=wrap;rounded=0;shadow=0;glass=0;dashed=1;sketch=0;" vertex="1" parent="1">
          <mxGeometry x="527.5" y="461" width="101" height="30" as="geometry" />
        </mxCell>
        <mxCell id="wEs3hCSaN0IzluOZxynQ-24" style="edgeStyle=orthogonalEdgeStyle;rounded=0;orthogonalLoop=1;jettySize=auto;html=1;exitX=1;exitY=0.5;exitDx=0;exitDy=0;" edge="1" parent="1" source="wEs3hCSaN0IzluOZxynQ-18" target="wEs3hCSaN0IzluOZxynQ-19">
          <mxGeometry relative="1" as="geometry" />
        </mxCell>
        <mxCell id="wEs3hCSaN0IzluOZxynQ-18" value="等待用户建立连接" style="rounded=1;whiteSpace=wrap;html=1;shadow=0;glass=0;sketch=0;fillColor=none;strokeColor=default;" vertex="1" parent="1">
          <mxGeometry x="85" y="751" width="101" height="40" as="geometry" />
        </mxCell>
        <mxCell id="wEs3hCSaN0IzluOZxynQ-25" style="edgeStyle=orthogonalEdgeStyle;rounded=0;orthogonalLoop=1;jettySize=auto;html=1;exitX=1;exitY=0.5;exitDx=0;exitDy=0;entryX=0;entryY=0.5;entryDx=0;entryDy=0;" edge="1" parent="1" source="wEs3hCSaN0IzluOZxynQ-19" target="wEs3hCSaN0IzluOZxynQ-20">
          <mxGeometry relative="1" as="geometry" />
        </mxCell>
        <mxCell id="wEs3hCSaN0IzluOZxynQ-19" value="交给线程池处理响应" style="rounded=1;whiteSpace=wrap;html=1;shadow=0;glass=0;sketch=0;strokeColor=default;fillColor=none;" vertex="1" parent="1">
          <mxGeometry x="273" y="749" width="121" height="44" as="geometry" />
        </mxCell>
        <mxCell id="wEs3hCSaN0IzluOZxynQ-27" style="edgeStyle=orthogonalEdgeStyle;rounded=0;orthogonalLoop=1;jettySize=auto;html=1;exitX=1;exitY=0.5;exitDx=0;exitDy=0;" edge="1" parent="1" source="wEs3hCSaN0IzluOZxynQ-20" target="wEs3hCSaN0IzluOZxynQ-21">
          <mxGeometry relative="1" as="geometry" />
        </mxCell>
        <mxCell id="wEs3hCSaN0IzluOZxynQ-20" value="接收数据" style="rounded=1;whiteSpace=wrap;html=1;shadow=0;glass=0;sketch=0;strokeColor=default;fillColor=none;" vertex="1" parent="1">
          <mxGeometry x="478" y="749" width="120" height="45" as="geometry" />
        </mxCell>
        <mxCell id="wEs3hCSaN0IzluOZxynQ-28" style="edgeStyle=orthogonalEdgeStyle;rounded=0;orthogonalLoop=1;jettySize=auto;html=1;exitX=1;exitY=0.5;exitDx=0;exitDy=0;" edge="1" parent="1" source="wEs3hCSaN0IzluOZxynQ-21" target="wEs3hCSaN0IzluOZxynQ-22">
          <mxGeometry relative="1" as="geometry" />
        </mxCell>
        <mxCell id="wEs3hCSaN0IzluOZxynQ-21" value="初始化HTTP请求&lt;br&gt;和响应" style="rounded=1;whiteSpace=wrap;html=1;shadow=0;glass=0;sketch=0;strokeColor=default;fillColor=none;" vertex="1" parent="1">
          <mxGeometry x="671" y="751" width="120" height="41" as="geometry" />
        </mxCell>
        <mxCell id="wEs3hCSaN0IzluOZxynQ-29" style="edgeStyle=orthogonalEdgeStyle;rounded=0;orthogonalLoop=1;jettySize=auto;html=1;exitX=1;exitY=0.5;exitDx=0;exitDy=0;" edge="1" parent="1" source="wEs3hCSaN0IzluOZxynQ-22" target="wEs3hCSaN0IzluOZxynQ-23">
          <mxGeometry relative="1" as="geometry" />
        </mxCell>
        <mxCell id="wEs3hCSaN0IzluOZxynQ-22" value="匹配调用用户&lt;br&gt;自定义响应函数" style="rounded=1;whiteSpace=wrap;html=1;shadow=0;glass=0;sketch=0;strokeColor=#b85450;fillColor=#f8cecc;" vertex="1" parent="1">
          <mxGeometry x="860" y="751" width="120" height="39" as="geometry" />
        </mxCell>
        <mxCell id="wEs3hCSaN0IzluOZxynQ-23" value="返回HTTP响应" style="rounded=1;whiteSpace=wrap;html=1;shadow=0;glass=0;sketch=0;strokeColor=default;fillColor=none;" vertex="1" parent="1">
          <mxGeometry x="1055" y="750" width="120" height="40" as="geometry" />
        </mxCell>
        <mxCell id="wEs3hCSaN0IzluOZxynQ-31" value="" style="rounded=1;whiteSpace=wrap;html=1;shadow=0;glass=0;sketch=0;strokeColor=default;fillColor=none;dashed=1;" vertex="1" parent="1">
          <mxGeometry x="443" y="670.75" width="751" height="201.5" as="geometry" />
        </mxCell>
        <mxCell id="wEs3hCSaN0IzluOZxynQ-33" value="线程池内处理" style="rounded=1;whiteSpace=wrap;html=1;shadow=0;glass=0;sketch=0;strokeColor=#82b366;fillColor=#d5e8d4;" vertex="1" parent="1">
          <mxGeometry x="736" y="641" width="120" height="60" as="geometry" />
        </mxCell>
      </root>
    </mxGraphModel>
  </diagram>
</mxfile>
